# xmcd
#
# Track frame offsets:
#	150
#	11673
#	32442
#	45415
#	61352
#	75336
#	86618
#	98134
#	112610
#	131288
#	150979
#	162248
#	174038
#	192029
#	202312
#	217458
#
# Disc length: 3082 seconds
#
# Revision: 3
# Processed by: cddbd v1.5.2PL0 Copyright (c) Steve Scherf et al.
# Submitted via: EasyCDDAExtractor 10.0.2.1
#
DISCID=bc0c0810
DTITLE=Daniel O'Donnell - Thoughts of Home
DYEAR=1989
DGENRE=Country
TTITLE0=My Shoes Keep Walking Back to You
TTITLE1=The Mountains of Mourne
TTITLE2=London Leaves
TTITLE3=Blue Eyes Crying in the Rain
TTITLE4=Old Days Remembered
TTITLE5=Send Me the Pillow You Dream On
TTITLE6=Moonlight and Roses
TTITLE7=A Little Piece of Heaven
TTITLE8=Far Far From Home
TTITLE9=The Isle of Innisfree
TTITLE10=My Heart Skips a Beat
TTITLE11=I Know One
TTITLE12=I'll Take You Home Again Kathleen
TTITLE13=Second Fiddle
TTITLE14=My Favourite Memory
TTITLE15=Forty Shades of Green
EXTD=
EXTT0=
EXTT1=
EXTT2=
EXTT3=
EXTT4=
EXTT5=
EXTT6=
EXTT7=
EXTT8=
EXTT9=
EXTT10=
EXTT11=
EXTT12=
EXTT13=
EXTT14=
EXTT15=
PLAYORDER=
